<svg width="2500" height="1807" viewBox="0 0 2500 1807" fill="none" xmlns="http://www.w3.org/2000/svg">
<g clip-path="url(#clip0_84_7)">
<path d="M2388.03 1066.05H2401.36C2407.4 1066.63 2414.33 1068.98 2414.68 1076.71C2414.33 1086.04 2405.8 1086.88 2398.74 1087.37H2388.08V1090.04H2401.4L2414.73 1114.02H2420.06L2406.73 1090.04C2412.86 1089.73 2418.81 1085.59 2420.06 1076.71C2418.86 1067.65 2413.66 1062.72 2401.4 1063.43H2382.75V1114.02H2388.08V1066.05H2388.03Z" fill="white"/>
<path d="M2398.69 1044.77C2404.52 1044.77 2410.29 1045.96 2415.64 1048.27C2420.99 1050.58 2425.82 1053.96 2429.81 1058.2C2433.81 1062.45 2436.89 1067.47 2438.87 1072.95C2440.85 1078.43 2441.69 1084.26 2441.33 1090.08C2442.36 1113.22 2422.68 1132.9 2398.69 1132.72C2387.09 1132.85 2375.88 1128.48 2367.43 1120.54C2358.97 1112.59 2353.92 1101.67 2353.34 1090.08C2354.23 1064.36 2373.86 1044.73 2398.69 1044.77V1047.44C2375.64 1048.59 2358.71 1066.05 2358.71 1090.08C2358.71 1111.09 2375.9 1129.04 2398.69 1130.1C2420.95 1129.04 2437.91 1110.91 2438.62 1087.42C2438.22 1076.95 2433.88 1067.02 2426.48 1059.61C2419.08 1052.2 2409.16 1047.86 2398.69 1047.44V1044.77ZM1002.17 1588.42H1095.4V1162H1002.17V1588.42ZM2385.37 1297.92C2379.99 1263.67 2351.61 1237.68 2305.37 1236.62C2282.36 1237.64 2230.39 1246.3 2230.74 1276.6C2230.39 1323.46 2308.79 1326.48 2326.69 1327.23C2453.86 1339.23 2490.11 1394.57 2489.26 1460.49C2490.11 1507.66 2465.72 1543.82 2430.63 1569.76C2401.45 1590.64 2340.86 1598.9 2302.7 1599.08C2221.11 1598.9 2137.46 1554.04 2126.8 1452.49H2220.08C2224.08 1499.76 2274.41 1518.63 2302.7 1519.12C2354.76 1518.63 2390.96 1496.56 2390.61 1471.15C2390.96 1430.51 2352.9 1421.8 2299.99 1415.18C2267.66 1411.9 2209.56 1402.12 2185.39 1380.54C2158.48 1359.79 2135.2 1336.07 2134.76 1292.63C2135.02 1218.36 2193.48 1159.46 2307.99 1159.37C2404.42 1158.57 2476.69 1214.81 2478.56 1297.92H2385.37ZM1655.12 1042.06H2148.13L1537.86 0L1172.69 215.875L1655.12 1042.06ZM146.66 1660.37H8.0735V1785.63H146.66V1761.65H56.0458V1735.04H146.66V1711.06H56.0458V1684.36H146.66V1660.37ZM1905.6 1660.37H1767.06V1783.01H1905.6V1759.03H1814.98V1732.33H1905.6V1711.06H1814.98V1684.36H1905.6V1660.37ZM916.882 1785.63H967.519V1660.37H916.882V1785.63ZM685.016 1790.96C745.07 1791.81 768.434 1763.47 767.634 1735V1660.37H719.662V1735.04C718.463 1753.56 709.268 1766 687.681 1767.02C664.316 1766.05 655.122 1753.56 655.699 1735.04V1660.37H605.062V1735.04C605.151 1763.47 626.827 1791.81 685.016 1790.96ZM1167.4 1745.66H1236.7C1247.9 1745.32 1258.55 1740.72 1266.48 1732.8C1274.4 1724.87 1279 1714.22 1279.34 1703.02C1278.94 1691.83 1274.32 1681.22 1266.41 1673.3C1258.5 1665.39 1247.88 1660.77 1236.7 1660.37H1116.77V1785.63H1167.4V1745.66ZM1417.93 1660.37H1489.88L1519.2 1735.04L1545.85 1660.37H1617.81V1783.01H1572.46V1687.02L1537.86 1783.01H1497.88L1463.19 1687.02V1783.01H1417.93V1660.37ZM2049.56 1660.37V1783.01H2094.82V1705.68L2153.46 1783.01H2212.13V1660.37H2166.78V1742.99L2105.48 1660.37H2049.56ZM2350.72 1660.37V1684.36H2401.36V1783.01H2451.95V1684.36H2499.92V1660.37H2350.72ZM1985.6 1553.72C1948.14 1580.05 1903.41 1594.02 1857.63 1593.7C1738.41 1594.28 1641.75 1497.53 1641.8 1377.87C1641.75 1259.05 1738.45 1162.35 1857.63 1162C1903.73 1162.25 1948.55 1177.19 1985.6 1204.64V1162H2078.88V1591.08H1985.6V1553.72ZM343.879 1553.72C306.57 1580.31 261.76 1594.31 215.953 1593.7C97.6217 1594.32 0.9665 1497.58 0.078125 1377.91C0.9665 1259.09 97.6217 1162.39 215.909 1162.04C262.048 1162 306.949 1176.96 343.835 1204.68V1162.04H437.114V1591.12H343.835L343.879 1553.72ZM1495.17 1039.4V1204.64C1458.26 1177 1413.4 1162.04 1367.29 1162C1248.65 1162.39 1151.99 1259.09 1151.41 1377.87C1152.03 1497.53 1248.65 1594.28 1367.29 1593.7C1413.07 1594.22 1457.84 1580.23 1495.17 1553.72V1591.08H1588.49V1039.4H1495.17Z" fill="black"/>
<path d="M661.029 730.289L293.242 946.12L349.21 1042.06H839.593V1204.64C802.69 1176.95 757.8 1161.99 711.667 1161.99C593.246 1162.39 496.591 1259.09 495.792 1377.87C496.591 1497.53 593.246 1594.28 711.667 1593.7C757.467 1594.27 802.264 1580.27 839.593 1553.72V1591.08H932.872V1039.4H840.703L661.029 730.289ZM732.988 580.998L1002.17 1042.06V1132.68H1095.44V1042.06H1495.17L1100.73 365.122L732.988 580.998Z" fill="black"/>
<path d="M1367.29 1505.8C1350.65 1505.66 1334.2 1502.23 1318.89 1495.72C1303.58 1489.21 1289.71 1479.74 1278.07 1467.86C1266.42 1455.97 1257.24 1441.9 1251.05 1426.46C1244.86 1411.02 1241.78 1394.51 1241.98 1377.87C1241.75 1361.35 1244.83 1344.96 1251.05 1329.65C1257.26 1314.34 1266.48 1300.44 1278.17 1288.76C1289.85 1277.08 1303.76 1267.87 1319.06 1261.66C1334.37 1255.45 1350.77 1252.37 1367.29 1252.61C1383.94 1252.32 1400.48 1255.34 1415.96 1261.5C1431.43 1267.66 1445.53 1276.84 1457.43 1288.49C1469.33 1300.15 1478.79 1314.05 1485.27 1329.39C1491.75 1344.74 1495.11 1361.22 1495.17 1377.87C1495.03 1411.75 1481.51 1444.2 1457.56 1468.16C1433.61 1492.12 1401.16 1505.64 1367.29 1505.8ZM1857.63 1505.8C1787.62 1505.22 1730.81 1448.41 1729.7 1377.87C1730.77 1308.27 1787.62 1251.41 1857.63 1252.61C1927.72 1251.45 1984.58 1308.27 1985.6 1377.87C1985.22 1411.69 1971.61 1444.01 1947.69 1467.92C1923.77 1491.83 1891.44 1505.43 1857.63 1505.8ZM215.909 1505.8C182.341 1505.42 150.294 1491.74 126.808 1467.75C103.322 1443.77 90.3161 1411.44 90.6478 1377.87C89.9815 1308.27 146.793 1251.41 215.909 1252.61C232.576 1252.27 249.144 1255.26 264.642 1261.41C280.14 1267.55 294.258 1276.72 306.17 1288.38C318.081 1300.05 327.547 1313.97 334.015 1329.33C340.482 1344.7 343.82 1361.2 343.835 1377.87C343.788 1411.78 330.295 1444.3 306.314 1468.28C282.334 1492.26 249.822 1505.75 215.909 1505.8ZM711.667 1505.8C695.038 1505.63 678.605 1502.19 663.308 1495.68C648.01 1489.16 634.147 1479.68 622.513 1467.8C610.879 1455.92 601.702 1441.86 595.506 1426.43C589.311 1411 586.218 1394.5 586.406 1377.87C585.606 1308.27 642.418 1251.41 711.667 1252.61C728.326 1252.3 744.88 1255.31 760.365 1261.47C775.85 1267.62 789.956 1276.79 801.861 1288.45C813.767 1300.11 823.234 1314.02 829.712 1329.37C836.19 1344.72 839.548 1361.21 839.593 1377.87C839.476 1411.76 825.96 1444.23 801.995 1468.2C778.029 1492.16 745.559 1505.68 711.667 1505.8Z"  fill="#374151"/>
<path d="M445.154 1774.97C458.169 1764.09 465.276 1747.66 466.475 1721.67C465.276 1656.86 426.943 1651.05 375.861 1652.38C323.669 1651.05 283.692 1656.86 282.537 1721.67C283.648 1778.48 321.093 1790.17 373.151 1791.01C390.83 1790.17 405.71 1789.05 418.503 1785.68L445.154 1807L461.145 1788.3L445.154 1774.97Z" fill="black"/>
<path d="M1167.4 1684.36H1210C1220.84 1684.54 1229.19 1692.84 1228.66 1703.02C1229.15 1713.37 1220.84 1721.67 1210 1721.67H1167.4V1684.36ZM410.463 1745.66C413.883 1739.88 415.26 1731.93 415.838 1721.67C415.305 1683.56 403.623 1672.72 375.861 1673.7C346.989 1672.77 333.663 1683.56 333.219 1721.67C333.663 1756.81 350.32 1766 373.196 1767.02C380.969 1766.05 386.921 1765.38 391.852 1764.31L381.191 1753.65L397.137 1732.33L410.463 1745.66Z" fill="#374151"/>
</g>
<defs>
<clipPath id="clip0_84_7">
<rect width="2500" height="1807" fill="white"/>
</clipPath>
</defs>
</svg>
