<svg width="297" height="291" viewBox="0 0 297 291" fill="none" xmlns="http://www.w3.org/2000/svg">
<g clip-path="url(#clip0_87_2)">
<path d="M275.673 221.1C273.396 221.101 271.149 220.585 269.102 219.589C267.055 218.594 265.26 217.146 263.855 215.355L167.643 91.1L210.078 50.173C221.18 39.5243 232.483 29.091 243.988 18.873C254.78 9.31 271.577 5.436 286.082 5.436C286.23 5.436 286.082 0.16 286.082 0.16H203.116V5.128L215.941 5.328C220.485 5.35122 225.02 5.72197 229.507 6.437C230.309 6.58136 231.065 6.91523 231.712 7.41081C232.359 7.90639 232.878 8.54934 233.226 9.28611C233.574 10.0229 233.741 10.8321 233.713 11.6465C233.685 12.4609 233.463 13.2568 233.065 13.968C229.786 19.7964 225.759 25.1713 221.087 29.956C199.73 51.683 145.502 103.81 139.355 109.7C139.232 99 139.362 5.27 139.362 5.27L171.597 5.276V0H77.622V5.276L106.212 5.251L106.274 220.915L76.559 220.9V226.787C76.553 226.707 171.208 226.787 171.208 226.787V221.054L139.133 221.06L139.158 119.16C139.109 119.148 141.493 117.171 143.158 115.793C146.278 119.666 149.898 124.151 149.935 124.164L223.654 220.964L194.606 220.97V226.851H294.537V221.118C294.611 221.118 280.693 221.093 275.676 221.093L275.673 221.1Z" fill="black"/>
<path d="M77.001 56.2051C72.2145 52.5657 66.6669 50.0557 60.7735 48.863C54.88 47.6702 48.793 47.8254 42.968 49.3171C32.8009 52.0098 23.6938 57.7326 16.857 65.7251C8.73505 75.2971 3.29824 86.8527 1.1015 99.2125C-1.09523 111.572 0.0267816 124.294 4.35301 136.078C9.91301 150.787 20.359 164.335 35.124 170.678C41.0919 173.212 47.4898 174.579 53.972 174.706C54.8556 174.72 55.7391 174.673 56.616 174.564C64.9264 173.488 72.7762 170.131 79.294 164.864C81.703 162.93 85.039 160.323 88.159 162.405C90.469 163.919 91.266 169.676 91.291 169.705H94.374L94.411 129.266L91.291 129.247C91.291 129.247 91.075 132.805 91.038 134.393C90.7243 138.997 89.5047 143.494 87.449 147.626C86.724 149.021 85.9827 150.407 85.225 151.784C77.768 165.437 60.872 175.247 45.23 170.323C41.2726 169.055 37.6375 166.943 34.5756 164.133C31.5137 161.323 29.098 157.882 27.495 154.048C19.439 134.743 18.247 113.213 21.15 92.6661C21.9168 87.1214 23.0245 81.6294 24.467 76.2211C26.8167 67.5196 32.2946 59.9911 39.851 55.078C41.2868 54.1595 42.8322 53.4248 44.451 52.891C50.9861 50.7758 58.0108 50.7031 64.5883 52.6825C71.1658 54.6619 76.9837 58.5994 81.266 63.9701C86.4644 70.624 89.8622 78.5042 91.132 86.8521C91.274 88.0321 91.682 90.3861 91.682 90.3861H94.573L94.592 53.746L91.176 53.752C91.207 53.752 91.17 55.185 91.151 55.883C91.071 59.503 87.142 60.733 84.01 60.201C81.242 59.725 79.154 57.866 76.998 56.201L77.001 56.2051ZM291.629 0.45105V1.02605H290.177V5.23305H289.584V1.02605H288.132V0.45105H291.629ZM292.809 0.45105H293.649L294.885 4.49705L296.115 0.45105H296.943V5.23305H296.387V2.40905L296.393 1.92705L296.401 1.19905L295.172 5.23305H294.591L293.353 1.19905V1.34705L293.359 1.87805L293.371 2.40305V5.22605H292.809V0.45105Z" fill="black"/>
<path d="M86.974 288.883H84.083V284.916C83.091 286.342 81.7608 287.499 80.2116 288.285C78.6623 289.07 76.9424 289.459 75.206 289.416C73.634 289.434 72.0738 289.142 70.6148 288.557C69.1558 287.971 67.8267 287.103 66.7036 286.003C65.5805 284.903 64.6855 283.592 64.0699 282.146C63.4543 280.699 63.1301 279.145 63.116 277.573C63.1183 275.996 63.4361 274.435 64.0508 272.982C64.6656 271.53 65.5647 270.215 66.6953 269.115C67.826 268.016 69.1653 267.153 70.6343 266.579C72.1033 266.005 73.6723 265.73 75.249 265.772C76.9783 265.762 78.6846 266.169 80.2226 266.96C81.7606 267.75 83.085 268.901 84.083 270.313V266.313H86.974V288.883ZM92.293 253.163H95.178V288.876H92.293V253.163ZM123.411 266.303H126.3V288.883H123.411V266.303ZM131.011 266.303H133.902V269.237C136.3 266.683 137.551 265.983 140.276 265.983C146.423 265.983 149.24 270.091 149.24 276.609V288.883H146.348V276.607C146.348 271.733 144.648 268.582 140.312 268.582C139.11 268.54 137.922 268.855 136.898 269.486C135.873 270.116 135.058 271.036 134.554 272.128C134.031 273.524 133.808 275.014 133.9 276.502V288.883H131.009V266.303H131.011ZM187.951 253.163H190.842V288.876H187.951V253.163Z" fill="black"/>
<path d="M125.184 256.524C126.16 256.524 126.951 255.733 126.951 254.757C126.951 253.781 126.16 252.99 125.184 252.99C124.208 252.99 123.417 253.781 123.417 254.757C123.417 255.733 124.208 256.524 125.184 256.524Z" fill="black"/>
<path d="M223.175 266.303H226.066V288.883H223.175V266.303Z" fill="black"/>
<path d="M224.948 256.524C225.924 256.524 226.715 255.733 226.715 254.757C226.715 253.781 225.924 252.99 224.948 252.99C223.972 252.99 223.181 253.781 223.181 254.757C223.181 255.733 223.972 256.524 224.948 256.524Z" fill="black"/>
<path d="M60.472 282.81C58.194 284.581 55.4624 285.674 52.5912 285.962C49.7199 286.25 46.8256 285.723 44.241 284.439C41.6564 283.156 39.4864 281.169 37.9804 278.708C36.4745 276.246 35.6937 273.41 35.7278 270.524C35.762 267.639 36.6097 264.822 38.1736 262.396C39.7374 259.971 41.9539 258.037 44.5682 256.815C47.1824 255.593 50.0884 255.134 52.952 255.49C55.8156 255.846 58.5206 257.003 60.756 258.828L62.683 256.598C60.0175 254.401 56.7841 253.004 53.3573 252.568C49.9305 252.133 46.4505 252.677 43.3201 254.137C40.1897 255.598 37.5371 257.915 35.6694 260.821C33.8017 263.727 32.7953 267.103 32.7667 270.557C32.7382 274.011 33.6886 277.403 35.508 280.339C37.3274 283.276 39.9413 285.637 43.047 287.149C46.1528 288.661 49.6234 289.263 53.0569 288.884C56.4905 288.505 59.7465 287.162 62.448 285.009L60.472 282.81ZM97.664 266.328L108.714 290.408L120.18 266.328H117.048L108.714 283.842L100.788 266.328H97.664ZM231.096 266.303H233.987V269.237C236.387 266.679 237.632 265.981 240.356 265.981C246.503 265.981 249.32 270.089 249.32 276.607V288.883H246.434V276.607C246.434 271.733 244.734 268.582 240.398 268.582C239.196 268.54 238.008 268.855 236.984 269.486C235.959 270.116 235.144 271.036 234.64 272.128C234.116 273.524 233.893 275.014 233.985 276.502V288.882H231.094V266.303H231.096ZM162.145 253.162H165.265V269.355L180.425 253.162H184.264L169.917 268.962L183.947 288.879H180.216L167.872 271.19L165.264 273.762V288.883H162.144L162.145 253.162Z" fill="black"/>
<path d="M75.1691 286.819C77.5564 286.734 79.818 285.728 81.4787 284.01C83.1394 282.293 84.0698 279.999 84.0746 277.61C84.0794 275.221 83.1582 272.924 81.5044 271.2C79.8506 269.476 77.593 268.46 75.206 268.366C72.7753 268.386 70.4506 269.364 68.7371 271.088C67.0236 272.813 66.0597 275.143 66.0548 277.574C66.05 280.005 67.0045 282.34 68.7111 284.071C70.4177 285.802 72.7384 286.789 75.1691 286.819Z" fill="transparent"/>
<path d="M207.002 286.819C204.785 286.776 202.662 285.912 201.045 284.394C199.428 282.877 198.431 280.813 198.248 278.603H218.848C218.958 276.819 218.691 275.032 218.063 273.358C217.292 271.345 215.986 269.581 214.285 268.256C212.584 266.932 210.553 266.097 208.413 265.843C206.272 265.589 204.103 265.925 202.139 266.815C200.175 267.704 198.492 269.114 197.272 270.89C196.051 272.667 195.339 274.744 195.213 276.896C195.087 279.048 195.552 281.193 196.557 283.1C197.562 285.008 199.069 286.604 200.916 287.716C202.762 288.829 204.877 289.416 207.033 289.413C209.125 289.388 211.174 288.817 212.977 287.756C214.78 286.695 216.275 285.181 217.313 283.365L214.841 281.815C214.125 283.292 213.013 284.542 211.629 285.425C210.245 286.309 208.643 286.791 207.002 286.819ZM207.045 268.366C211.295 268.366 214.767 271.381 215.845 276.002H198.345C198.655 273.905 199.7 271.986 201.294 270.587C202.887 269.189 204.925 268.402 207.045 268.366Z" fill="black"/>
</g>
<defs>
<clipPath id="clip0_87_2">
<rect width="296.942" height="290.408" fill="white"/>
</clipPath>
</defs>
</svg>
