<svg width="525" height="525" viewBox="0 0 525 525" fill="none" xmlns="http://www.w3.org/2000/svg">
<g clip-path="url(#clip0_84_21)">
<path fill-rule="evenodd" clip-rule="evenodd" d="M0 0H524.378V524.378H0V0Z" fill="tranparent"/>
<path fill-rule="evenodd" clip-rule="evenodd" d="M28.377 166.487L18.741 165.987L14.769 165.193L13.975 163.702C13.975 162.312 14.968 161.716 16.957 161.716H116.598C163.289 161.716 196.138 175.955 215.145 204.432C226.073 220.923 231.537 240.494 231.536 263.144C231.582 274.789 229.736 286.363 226.071 297.416C222.098 308.67 216.218 319.156 208.688 328.416C200.576 337.954 190.515 345.643 179.182 350.966C166.962 356.529 153.254 359.41 137.856 359.41H10.792C8.70498 359.41 7.71198 358.71 7.71198 357.525C7.71198 356.233 9.20298 355.539 11.983 355.539L36.323 354.051C40.099 353.551 42.781 352.457 44.073 350.969L46.557 347.49C47.457 345.11 47.95 341.535 48.048 336.665V179.104C48.048 172.945 44.571 169.169 37.816 167.678L28.377 166.487ZM82.02 169.172L81.32 173.147V348.086C81.32 350.072 81.72 351.459 82.512 351.96L86.487 352.56H99.602L130.002 351.466C136.972 350.832 143.861 349.5 150.566 347.491C156.001 345.509 161.095 342.695 165.666 339.15C169.641 335.872 173.713 331.201 178.185 325.24C185.634 315.506 190.998 303.088 194.276 287.889C196.215 278.408 197.214 268.759 197.258 259.082C197.17 250.185 195.935 241.337 193.583 232.756C190.106 219.146 184.84 207.225 177.388 197.091C162.988 177.422 139.34 167.686 106.657 167.686H86.487C84.2043 167.482 82.7153 167.978 82.02 169.172ZM251.1 357.923C250.9 356.729 251.894 356.234 254.082 356.234L261.035 356.034C264.811 355.534 267.096 354.249 267.988 352.261L269.28 345.109V287.385C269.345 286.446 269.169 285.507 268.769 284.655C268.369 283.803 267.758 283.068 266.995 282.518L261.829 282.018L254.877 283.909L251.101 283.709C250.603 282.518 252.093 281.425 255.571 280.431C263.118 278.544 270.395 275.707 277.228 271.987C279.692 270.533 282.247 269.238 284.877 268.111L287.859 267.811C288.852 268.011 289.352 269.995 289.352 273.57V346.287C289.352 349.761 290.144 352.247 291.637 353.736C293.422 355.526 297.597 356.418 304.053 356.418C306.338 356.418 307.527 356.918 307.731 358.007C307.731 358.907 307.031 359.201 305.84 359.201H252.887C251.695 359.209 251.1 358.709 251.1 357.917V357.923ZM485.546 286.392C480.67 291.455 477.24 297.732 475.611 304.57V346.794C475.611 350.567 476.903 353.25 479.586 354.939L485.65 356.027L492.005 356.727C493.498 356.927 494.094 357.227 494.094 358.019L493.794 358.719L492.105 359.219H438.959C437.37 359.219 436.478 358.719 436.478 357.927L437.966 356.733L446.908 356.033C450.382 355.433 452.572 354.248 453.763 352.458L455.256 347.988V288.388L454.256 284.016L452.572 283.023C451.863 282.448 450.996 282.102 450.086 282.03C448.312 281.964 446.546 282.303 444.923 283.023L439.86 284.416L436.974 283.716C436.474 283.016 436.674 282.524 437.374 282.228L441.645 280.438C451.379 277.557 459.227 274.578 464.695 271.501L471.447 267.823L474.429 268.023L475.621 270.509V292.362C483.075 280.243 489.033 272.794 493.108 270.308C495.188 268.98 497.424 267.913 499.765 267.131L503.239 266.831C505.423 266.631 507.91 267.331 510.688 269.116C512.447 270.049 513.926 271.432 514.973 273.125C516.02 274.818 516.598 276.759 516.648 278.749C516.816 280.26 516.635 281.79 516.118 283.219C515.601 284.649 514.762 285.941 513.666 286.995C511.68 288.684 509.691 289.185 507.907 288.684C506.428 288.481 505.062 287.78 504.033 286.698L501.25 283.224C499.066 280.041 496.979 279.048 494.498 279.946C491.606 280.732 488.63 282.922 485.548 286.396L485.546 286.392ZM277.923 204.733C276.222 204.699 274.532 205.017 272.96 205.667C271.387 206.317 269.966 207.284 268.785 208.509C267.484 209.674 266.467 211.122 265.812 212.74C265.157 214.359 264.881 216.106 265.006 217.848C264.902 219.529 265.189 221.212 265.845 222.763C266.501 224.314 267.507 225.693 268.785 226.79C270.588 228.562 272.871 229.769 275.351 230.261C277.832 230.752 280.402 230.508 282.745 229.558C285.088 228.607 287.103 226.992 288.54 224.912C289.977 222.831 290.774 220.376 290.834 217.848C290.85 216.111 290.515 214.388 289.849 212.783C289.184 211.179 288.201 209.725 286.96 208.509C285.787 207.302 284.381 206.345 282.828 205.696C281.275 205.047 279.606 204.719 277.923 204.733ZM330.577 284.007C334.215 279.186 338.774 275.135 343.989 272.089C348.462 269.423 353.374 267.571 358.494 266.621L376.873 265.533C383.201 265.721 389.436 267.102 395.252 269.603C408.664 275.563 417.105 286.494 420.283 302.387C423.561 318.481 420.783 332.094 412.037 343.12C404.588 352.457 394.751 358.42 382.337 360.999C369.325 363.88 357.206 362.985 346.275 358.518C332.066 352.753 323.429 341.33 320.643 324.641C318.159 308.849 321.437 295.435 330.578 284.009L330.577 284.007ZM388.789 279.54C382.73 272.788 375.081 269.807 365.84 270.598C356.903 271.498 350.048 276.458 345.576 285.898C341.506 294.443 340.013 304.878 341.506 317.198C342.594 329.418 346.473 339.152 352.728 346.603C359.385 354.451 366.937 357.73 375.378 356.241C379.542 355.547 383.485 353.882 386.885 351.38C390.286 348.878 393.049 345.61 394.951 341.841C399.121 333.696 400.609 323.165 399.616 309.754C398.427 296.342 394.953 286.405 388.789 279.554V279.54ZM250.407 283.912V284.905L248.22 283.512V284.012L248.42 284.912H248.12V283.021H248.22L250.206 284.515V283.021H250.606L250.406 283.921L250.407 283.912Z" fill="black"/>
<path fill-rule="evenodd" clip-rule="evenodd" d="M254.079 283.215H252.888V283.915H253.881V284.015H252.888V284.715H254.08V284.915H252.591V283.022H254.079V283.215ZM259.544 283.015H259.644L258.651 284.906H258.351L257.557 283.412L256.657 284.906H256.557C256.171 284.306 255.839 283.673 255.564 283.015H256.064L256.664 284.509L257.564 283.015H257.864L258.564 284.509L259.358 283.015H259.544ZM262.324 284.008L262.524 284.908H262.024V284.208L261.031 283.008H261.531L262.325 284.001L263.119 283.008H263.519L262.324 284.008ZM265.107 283.415C265.447 283.15 265.868 283.009 266.299 283.015C266.725 283.042 267.137 283.18 267.493 283.415C267.58 283.49 267.652 283.582 267.704 283.685C267.755 283.788 267.786 283.9 267.793 284.015L267.493 284.715C267.12 284.887 266.708 284.956 266.299 284.915C265.799 284.915 265.306 284.915 265.107 284.715L264.607 284.015C264.612 283.873 264.664 283.738 264.755 283.629C264.845 283.52 264.97 283.444 265.108 283.414L265.107 283.415ZM267.096 283.415L266.296 283.215L265.504 283.415C265.387 283.452 265.284 283.525 265.211 283.624C265.138 283.723 265.099 283.842 265.099 283.965C265.099 284.088 265.138 284.208 265.211 284.307C265.284 284.406 265.387 284.479 265.504 284.515L266.296 284.915C266.451 284.911 266.602 284.874 266.741 284.804C266.879 284.735 267 284.636 267.096 284.515C267.199 284.472 267.29 284.404 267.36 284.316C267.43 284.229 267.477 284.125 267.496 284.015C267.493 283.887 267.454 283.763 267.383 283.657C267.312 283.55 267.213 283.466 267.096 283.414V283.415ZM270.075 283.215L269.975 283.915H270.275C270.775 283.915 271.075 283.715 271.075 283.515C271.075 283.415 270.975 283.215 270.475 283.215H270.083H270.075ZM270.575 283.015C271.075 283.015 271.467 283.215 271.467 283.515L271.073 283.915L270.573 284.015L271.767 284.915H271.267L270.075 284.015H269.975L270.075 284.915H269.575V283.024H270.575V283.015ZM275.542 283.015L274.253 283.915L275.542 284.915H275.041L273.941 284.015V283.915L273.741 284.015L273.941 284.915H273.441V283.022H273.941L273.741 283.922H273.941L275.233 283.022L275.542 283.015Z" fill="black"/>
</g>
<defs>
<clipPath id="clip0_84_21">
<rect width="524.378" height="524.378" fill="white"/>
</clipPath>
</defs>
</svg>
