<svg width="40" height="40" viewBox="0 0 40 40" fill="none" xmlns="http://www.w3.org/2000/svg">
<path fill-rule="evenodd" clip-rule="evenodd" d="M27.66 20.52H28.98L29.31 20.91H28.02L27.66 20.52ZM11.9 19.38H11.28V19.22H11.74C11.7855 19.2806 11.8394 19.3345 11.9 19.38ZM27.56 19.38C27.5667 19.3416 27.5845 19.306 27.6111 19.2776C27.6378 19.2492 27.6721 19.2291 27.71 19.22H28V19.38H27.56ZM17.26 19.5C17.1174 19.5594 16.9645 19.59 16.81 19.59C16.6555 19.59 16.5026 19.5594 16.36 19.5H13.1C12.7798 19.6322 12.4202 19.6322 12.1 19.5H11.27V19.81H28V19.5H17.26ZM13.3 19.38L13.48 19.22H16C16.0456 19.2805 16.0995 19.3344 16.16 19.38H13.3ZM16.82 19.29C16.9787 19.29 17.1337 19.2428 17.2655 19.1544C17.3973 19.0661 17.4998 18.9405 17.56 18.7938C17.6203 18.647 17.6355 18.4856 17.6038 18.3302C17.5721 18.1747 17.495 18.0322 17.3821 17.9207C17.2692 17.8093 17.1257 17.7339 16.9699 17.7041C16.814 17.6744 16.6529 17.6917 16.5069 17.7538C16.3609 17.8159 16.2366 17.92 16.15 18.0528C16.0633 18.1857 16.018 18.3413 16.02 18.5C16.0227 18.7104 16.1081 18.9113 16.2578 19.0592C16.4076 19.2071 16.6096 19.29 16.82 19.29V19.45C16.6183 19.4598 16.4184 19.4084 16.2465 19.3024C16.0746 19.1964 15.9388 19.0409 15.8569 18.8563C15.7751 18.6717 15.7511 18.4666 15.7881 18.2681C15.8251 18.0695 15.9213 17.8869 16.0641 17.7441C16.2069 17.6013 16.3896 17.505 16.5881 17.4681C16.7866 17.4311 16.9917 17.4551 17.1763 17.5369C17.361 17.6187 17.5165 17.7545 17.6225 17.9264C17.7284 18.0983 17.7799 18.2983 17.77 18.5C17.7579 18.748 17.6539 18.9827 17.4783 19.1583C17.3027 19.3339 17.0681 19.4379 16.82 19.45V19.29ZM13.69 18.37C13.692 18.1536 13.6295 17.9414 13.5105 17.7607C13.3915 17.5799 13.2214 17.4386 13.0218 17.3549C12.8222 17.2712 12.6022 17.2487 12.3899 17.2905C12.1775 17.3322 11.9824 17.4362 11.8293 17.5893C11.6763 17.7423 11.5723 17.9374 11.5305 18.1498C11.4888 18.3622 11.5112 18.5822 11.595 18.7817C11.6787 18.9813 11.8199 19.1514 12.0007 19.2704C12.1815 19.3895 12.3936 19.452 12.61 19.45C12.8956 19.4474 13.1688 19.3327 13.3708 19.1308C13.5728 18.9288 13.6874 18.6556 13.69 18.37H13.51C13.51 18.6113 13.4141 18.8428 13.2435 19.0134C13.0728 19.1841 12.8414 19.28 12.6 19.28C12.3587 19.28 12.1272 19.1841 11.9566 19.0134C11.7859 18.8428 11.69 18.6113 11.69 18.37C11.69 18.1286 11.7859 17.8972 11.9566 17.7265C12.1272 17.5558 12.3587 17.46 12.6 17.46C12.8414 17.46 13.0728 17.5558 13.2435 17.7265C13.4141 17.8972 13.51 18.1286 13.51 18.37H13.69Z" fill="black"/>
<path fill-rule="evenodd" clip-rule="evenodd" d="M17.33 19L17 18.66L17.49 18.79H17.54C17.5332 18.7537 17.5332 18.7164 17.54 18.68H17.45L17 18.55V18.46L17.47 18.28H17.52V18.16C17.518 18.1726 17.5121 18.1842 17.5031 18.1931C17.4942 18.2021 17.4825 18.208 17.47 18.21L16.98 18.39L17.25 17.98H17.31L17.2 17.91V17.98L16.93 18.39V17.85H16.8V18.39L16.49 18.01V17.95L16.39 18.03C16.4127 18.0224 16.4373 18.0224 16.46 18.03L16.77 18.41V18.46L16.32 18.33C16.32 18.33 16.27 18.33 16.27 18.28V18.39H16.34L16.8 18.51V18.59L16.35 18.78H16.3C16.2919 18.8196 16.2919 18.8604 16.3 18.9C16.2964 18.8922 16.2945 18.8836 16.2945 18.875C16.2945 18.8664 16.2964 18.8578 16.3 18.85L16.74 18.65L16.46 19.06H16.41C16.4364 19.0919 16.471 19.1161 16.51 19.13C16.51 19.13 16.51 19.08 16.51 19.06L16.79 18.67C16.7978 18.6736 16.8064 18.6755 16.815 18.6755C16.8236 18.6755 16.8321 18.6736 16.84 18.67V19.22H16.97V18.67C16.9896 18.6756 17.0104 18.6756 17.03 18.67L17.36 19.03V19.1L17.44 19.02H17.39L17.33 19ZM12.57 17.75C12.9675 17.737 13.3648 17.7807 13.75 17.88C13.75 17.88 13.75 17.88 13.75 17.93C13.3678 18.0042 12.9793 18.0411 12.59 18.04C12.1965 18.0757 11.8001 18.0623 11.41 18C11.7843 17.8764 12.1758 17.8123 12.57 17.81V17.72C12.0952 17.7425 11.6265 17.8369 11.18 18C11.6422 18.1052 12.1167 18.1456 12.59 18.12C13.0659 18.1139 13.5394 18.0501 14 17.93C14.07 17.93 14 17.88 14 17.88C13.5365 17.7377 13.0548 17.6636 12.57 17.66V17.75ZM17.44 17.45C17.3068 17.4963 17.1695 17.5298 17.03 17.55H16.26C15.98 17.55 15.85 17.61 15.84 17.55C15.7663 17.3917 15.6721 17.2438 15.56 17.11C14.8126 17.2268 14.0476 17.1475 13.34 16.88V16.78C13.3796 16.7881 13.4204 16.7881 13.46 16.78C13.34 16.61 13.15 16.56 13.03 16.38C12.91 16.2 12.95 16.24 12.89 16.19C12.89 16.37 12.75 16.5 12.74 16.65C12.8317 16.6746 12.9283 16.6746 13.02 16.65C13.0518 16.6431 13.0848 16.644 13.1162 16.6527C13.1476 16.6614 13.1763 16.6776 13.2 16.7C13.2462 16.7097 13.2938 16.7097 13.34 16.7V16.8C13.2827 16.7871 13.2284 16.7633 13.18 16.73C13.1535 16.7481 13.1221 16.7577 13.09 16.7577C13.0579 16.7577 13.0265 16.7481 13 16.73C12.9171 16.7178 12.8329 16.7178 12.75 16.73C12.6439 16.7243 12.5381 16.7451 12.4421 16.7905C12.3461 16.8359 12.2629 16.9044 12.2 16.99C12.1755 17.0362 12.1627 17.0877 12.1627 17.14C12.1627 17.1923 12.1755 17.2438 12.2 17.29C12.2804 17.4104 12.3743 17.5211 12.48 17.62H12.35C12.15 17.44 12.01 17.27 12.04 17.06C12.14 16.6 12.56 16.67 12.68 16.47C12.7649 16.193 12.7649 15.897 12.68 15.62C12.4 15.5 12.05 15.36 11.99 15.03C11.9767 14.9915 11.9786 14.9493 11.9953 14.9122C12.0121 14.875 12.0423 14.8456 12.08 14.83C12.211 14.8212 12.3412 14.8564 12.45 14.93C12.45 14.93 12.4 14.78 12.51 14.78C12.62 14.78 12.76 15.08 12.81 15.09V15.21C12.6416 15.137 12.4779 15.0535 12.32 14.96C12.25 14.96 12.17 14.88 12.12 14.96C12.07 15.04 12.12 15.14 12.19 15.22C12.96 16.02 14.24 15.17 15.07 15.74V15.66C14.5 15.12 13.58 15.4 12.84 15.22V15.1C13.75 15.33 14.97 14.96 15.44 16.01C15.75 16.45 16.08 17.15 16.75 17.17C16.9807 17.1907 17.2125 17.1464 17.4193 17.0422C17.6261 16.9379 17.7995 16.7778 17.92 16.58C18.1691 15.8752 18.5841 15.2407 19.13 14.73H19.2C18.8917 15.0399 18.6412 15.4022 18.46 15.8C18.71 16.73 19.25 16.54 19.38 16.52C19.38 16.18 19.38 15.16 20.11 14.91C20.3263 14.7474 20.5819 14.645 20.8507 14.6134C21.1195 14.5818 21.3918 14.622 21.64 14.73C21.1376 15.2431 20.7909 15.888 20.64 16.59L20 16.77C20.0381 16.6224 20.0381 16.4676 20 16.32C19.93 16.32 19.87 16.41 19.72 16.49C19.57 16.57 19.72 16.41 19.72 16.41L20.01 16.23C19.9574 16.027 19.9508 15.8149 19.9906 15.609C20.0304 15.4032 20.1156 15.2088 20.24 15.04C19.6 15.26 19.78 16.6 19.85 16.77C19.7125 16.8217 19.5669 16.8488 19.42 16.85V16.62C19.14 16.72 18.66 16.62 18.42 15.91C18.19 16.39 17.99 17.14 17.42 17.34L17.44 17.45ZM27.44 15.45H27.36H27.42H27.44Z" fill="black"/>
<path fill-rule="evenodd" clip-rule="evenodd" d="M12.77 18.61L13.11 19.01C13.1166 19.0165 13.1219 19.0243 13.1255 19.0329C13.1291 19.0415 13.131 19.0507 13.131 19.06C13.131 19.0693 13.1291 19.0785 13.1255 19.0871C13.1219 19.0957 13.1166 19.1035 13.11 19.11C13.1691 19.0742 13.2202 19.0265 13.26 18.97C13.2458 18.9814 13.2282 18.9876 13.21 18.9876C13.1918 18.9876 13.1742 18.9814 13.16 18.97L12.8 18.57L13.31 18.75C13.36 18.75 13.38 18.81 13.38 18.83L13.44 18.67C13.4245 18.6779 13.4074 18.682 13.39 18.682C13.3726 18.682 13.3555 18.6779 13.34 18.67L12.84 18.49L13.36 18.41H13.46V18.23C13.4509 18.2503 13.437 18.2682 13.4197 18.2821C13.4023 18.296 13.3818 18.3056 13.36 18.31L12.86 18.39V18.34L13.27 18H13.38L13.25 17.85V17.97L12.85 18.3L13.03 17.79C13.0345 17.7724 13.0449 17.7569 13.0594 17.746C13.074 17.7351 13.0918 17.7294 13.11 17.73C13.0537 17.6981 12.993 17.6745 12.93 17.66C12.93 17.66 12.93 17.73 12.93 17.78L12.75 18.27H12.7L12.6 17.74C12.5893 17.711 12.5893 17.6791 12.6 17.65C12.5402 17.6419 12.4797 17.6419 12.42 17.65C12.4403 17.6551 12.4591 17.665 12.4748 17.679C12.4905 17.6929 12.5025 17.7104 12.51 17.73L12.6 18.24L12.24 17.85V17.75C12.1853 17.7751 12.1373 17.8128 12.1 17.86C12.1322 17.8477 12.1678 17.8477 12.2 17.86L12.56 18.26L12.07 18.08C12.07 18.08 11.99 18.01 12.01 17.99C11.9795 18.0505 11.956 18.1142 11.94 18.18C11.9582 18.1695 11.9789 18.1639 12 18.1639C12.021 18.1639 12.0417 18.1695 12.06 18.18L12.55 18.34V18.41L12.02 18.51C11.97 18.51 11.92 18.51 11.92 18.46C11.9086 18.5262 11.9086 18.5938 11.92 18.66C11.92 18.66 11.92 18.6 12 18.58L12.51 18.48L12.1 18.8C12.1 18.85 12 18.8 12 18.8C12 18.8 12.08 18.93 12.1 18.95C12.0877 18.9178 12.0877 18.8822 12.1 18.85L12.53 18.52L12.34 19.01C12.34 19.06 12.28 19.09 12.26 19.08C12.3179 19.1057 12.3782 19.1258 12.44 19.14C12.44 19.14 12.39 19.09 12.44 19.05L12.62 18.54L12.72 19.05C12.7212 19.0725 12.7173 19.0949 12.7086 19.1157C12.7 19.1365 12.6868 19.155 12.67 19.17C12.7318 19.1606 12.7922 19.1438 12.85 19.12C12.85 19.12 12.79 19.12 12.79 19.05L12.69 18.53H12.74L12.77 18.61ZM27.21 15.52V15.42C27.21 15.37 27.11 15.22 27.16 15.19C27.21 15.16 27.37 15.19 27.37 15.19C27.37 15.19 27.57 15 27.65 14.95C27.7311 14.9727 27.805 15.0159 27.8645 15.0754C27.9241 15.135 27.9673 15.2089 27.99 15.29C27.99 15.34 27.88 15.42 27.75 15.59C27.8 15.7 27.8 15.79 27.75 15.85C27.7243 15.8601 27.6957 15.8601 27.67 15.85C27.67 16.01 27.87 16.11 27.93 16.24C27.99 16.37 28.21 16.83 27.93 17.04C27.8653 17.0764 27.8104 17.1278 27.77 17.19C27.82 17.45 27.92 17.73 27.96 18.01H27.65C27.65 18.11 27.52 18.29 27.55 18.39C27.601 18.6027 27.6179 18.8221 27.6 19.04C27.6 19.11 27.65 19.11 27.6 19.22C27.55 19.33 27.43 19.32 27.42 19.37C27.41 19.42 27.11 19.47 27.11 19.43C27.11 19.39 27.27 19.25 27.3 19.16C27.3736 18.7619 27.3027 18.3505 27.1 18C27.02 17.95 26.95 18.08 26.9 18.14C27.0185 18.3886 27.0929 18.6559 27.12 18.93C27.12 19.01 27.21 19.13 27.12 19.24L26.86 19.37H26C26 19.37 25.9 19.28 25.92 19.21H26.77C26.77 19.21 26.85 19.21 26.94 19.06C26.94 18.67 26.53 18.06 26.59 17.9C26.65 17.74 26.79 17.46 26.92 17.13H26.98C26.84 17.62 26.62 17.87 26.66 18.02C26.6795 18.1051 26.7133 18.1863 26.76 18.26V18.36C26.7767 18.4338 26.811 18.5024 26.86 18.56C26.8862 18.5602 26.9122 18.555 26.9362 18.5447C26.9603 18.5343 26.982 18.5191 27 18.5C26.9903 18.4277 26.9628 18.359 26.92 18.3L26.79 18.35V18.25C26.88 18.25 26.95 18.19 26.87 18.14C27.1 18.02 26.82 18.06 26.87 18.01C26.9353 17.9524 26.9878 17.8817 27.024 17.8024C27.0602 17.7231 27.0793 17.6371 27.08 17.55V17.5C27.1362 17.7918 27.2233 18.0767 27.34 18.35V18.43C27.3144 18.4942 27.3144 18.5658 27.34 18.63C27.49 18.63 27.47 18.63 27.44 18.43H27.3V18.35H27.4C27.3606 18.2801 27.3432 18.2 27.35 18.12C27.35 18.07 27.35 17.97 27.42 18.18C27.47 18.18 27.55 17.8 27.57 17.67C27.26 17.74 27.57 17.38 27.34 17.36L27.45 17.16C27.4499 17.1447 27.4459 17.1298 27.4384 17.1165C27.4309 17.1032 27.4201 17.092 27.4071 17.084C27.3941 17.076 27.3793 17.0714 27.3641 17.0707C27.3488 17.07 27.3336 17.0732 27.32 17.08L27.3 17C27.25 17 27.2 16.9 27.13 16.85C27.0655 16.9124 27.0145 16.9873 26.98 17.07C26.98 17.07 26.98 17.07 27.03 17.07C27.08 17.07 27.12 17.12 27.2 17.07C27.28 17.02 27.33 17.02 27.3 16.95L27.36 17.03C27.3 17.03 27.3 17.18 27.3 17.26C27.3 17.34 27.23 17.15 27.1 17.15C26.97 17.15 26.98 17.07 26.93 17.08H26.87C26.88 16.9535 26.88 16.8265 26.87 16.7C26.9184 16.4583 26.9957 16.2233 27.1 16C27.1 15.93 27.34 15.8 27.33 15.73C27.3541 15.747 27.3717 15.7717 27.38 15.8C27.38 15.88 27.2 15.88 27.21 16.06C27.31 15.88 27.59 15.9 27.61 15.69C27.63 15.48 27.67 15.64 27.67 15.5C27.6126 15.4492 27.5651 15.3882 27.53 15.32C27.53 15.32 27.53 15.21 27.34 15.21C27.3239 15.2648 27.3039 15.3182 27.28 15.37C27.28 15.37 27.23 15.42 27.28 15.44C27.33 15.46 27.28 15.44 27.28 15.54C27.2675 15.5594 27.2608 15.582 27.2608 15.605C27.2608 15.6281 27.2675 15.6506 27.28 15.67C27.41 15.73 27.51 15.67 27.36 15.75C27.3437 15.7122 27.3199 15.6782 27.29 15.65C27.29 15.65 27.19 15.65 27.21 15.54C27.23 15.43 27.21 15.44 27.21 15.41V15.52ZM22.8 14.89C22.8 15.01 22.75 15.09 22.75 15.2C22.87 15.48 22.75 15.7 22.75 15.96C22.62 15.88 22.58 15.66 22.53 15.43C22.5061 15.2743 22.5061 15.1158 22.53 14.96L22.72 14.89H22.8Z" fill="black"/>
<path fill-rule="evenodd" clip-rule="evenodd" d="M22.46 15C22.4112 15.344 22.4743 15.6946 22.64 16C22.0336 16.2653 21.4086 16.4859 20.77 16.66C20.9099 15.9713 21.2592 15.3426 21.77 14.86C21.9894 14.9145 22.2141 14.9447 22.44 14.95L22.46 15ZM20.85 18.83C20.69 18.88 20.69 18.97 20.79 19.07C20.8431 19.1106 20.8874 19.1617 20.92 19.22H19.87C19.87 19.27 19.92 19.3 19.95 19.38H25.75C25.75 19.3 25.69 19.2 25.66 19.11C25.25 18.96 25.25 18.58 25.23 18.11C25.222 18.0637 25.222 18.0163 25.23 17.97C25.0327 17.5742 24.9628 17.1271 25.03 16.69L25.13 16.51C25.21 16.39 25.13 16.33 25.13 16.2L26.36 16V15.92L25.18 16.13C25.25 15.83 24.99 15.73 25.1 15.49C25.3385 15.7276 25.6249 15.9117 25.94 16.03L26 16C25.5683 15.808 25.1879 15.5168 24.89 15.15C24.8532 15.1414 24.819 15.1243 24.79 15.1C24.79 15.1 24.87 15.23 24.86 15.25C24.7735 15.2947 24.6775 15.3181 24.58 15.3181C24.4826 15.3181 24.3866 15.2947 24.3 15.25C23.8705 15.577 23.3998 15.8459 22.9 16.05C22.9457 16.3492 23.0859 16.626 23.3 16.84C23.5692 17.0414 23.8864 17.1689 24.22 17.21C24.28 17.41 24.53 18.05 24.54 18.15C24.55 18.25 24.63 18.25 24.63 18.25C24.6981 18.346 24.7457 18.4549 24.77 18.57V18.92C24.77 19 24.88 18.92 24.9 19.02V19.23H25.14C25.01 19.12 25.09 18.92 24.93 18.84C24.77 18.76 24.93 18.49 24.82 18.41C24.71 18.33 24.54 17.69 24.41 17.21L24.49 17.1C24.3181 17.1394 24.1396 17.141 23.967 17.1047C23.7943 17.0685 23.6316 16.9952 23.49 16.89C23.25 16.77 23.39 16.89 23.49 16.82C23.7673 16.9513 24.0805 16.9865 24.38 16.92C24.38 16.97 24.48 17.02 24.48 17.1L24.4 17.21C24.48 17.13 24.54 17.21 24.59 17.41C24.64 17.61 24.72 17.76 24.77 17.92C24.82 18.08 24.89 18.3 24.94 18.41C24.99 18.52 24.99 18.41 25.02 18.48C25.13 18.84 25.17 18.89 25.15 19.05C25.13 19.21 25.36 19.05 25.35 19.23H21.07C21.13 18.97 20.98 18.74 21.07 18.49C20.9 18.23 20.49 18.03 20.56 17.67C20.63 17.31 21.39 17.12 21.25 16.79C21.84 16.49 22.13 16.98 22.67 16.94C22.8698 16.9361 23.0682 16.9058 23.26 16.85C23.0331 16.657 22.8491 16.4185 22.72 16.15C21.5945 16.6273 20.4258 16.9957 19.23 17.25H19.13C18.4772 17.3766 17.8353 17.5538 17.21 17.78C16.6236 17.8354 16.0497 17.9839 15.51 18.22C15.43 18.22 15.41 18.3 15.51 18.34C16.3776 18.4976 17.2729 18.3566 18.05 17.94L18 17.83C17.5475 18.0133 17.0788 18.154 16.6 18.25C16.3024 18.3029 15.9977 18.3029 15.7 18.25C15.65 18.25 15.65 18.25 15.7 18.25C16.43 17.96 17.86 17.7 18.06 17.94C18.161 17.9761 18.2507 18.0382 18.32 18.12C18.38 18.2 18.52 18.17 18.61 18.12C18.7 18.07 18.76 17.97 18.76 17.85H18.61C18.4879 17.8537 18.3668 17.8739 18.25 17.91C18.1598 17.8224 18.0501 17.7573 17.93 17.72C18.2194 17.5961 18.5265 17.5184 18.84 17.49C18.63 17.63 18.73 17.81 18.61 17.85H18.76V17.71C18.91 17.35 19.53 17.3 19.85 17.21C19.772 17.3146 19.6774 17.4058 19.57 17.48C19.57 17.98 19.35 18.48 19.32 18.94C19.47 18.94 19.47 19.1 19.5 19.2C19.53 19.3 19.39 19.2 19.32 19.2C19.09 19.09 19.37 18.89 19.19 18.73C19.3231 18.3248 19.407 17.9052 19.44 17.48C19.37 17.48 19.35 17.55 19.32 17.6C19.2605 17.9922 19.1736 18.3799 19.06 18.76C19.06 18.76 19.17 18.83 19.17 18.89C19.17 18.95 19.17 19.12 19.12 19.22H17.62L17.48 19.38H19.74V19.3C19.6204 19.108 19.5569 18.8863 19.5569 18.66C19.5569 18.4337 19.6204 18.212 19.74 18.02L20.13 17.5C20.46 17.37 20.65 16.97 21 16.84C21 17.02 20.78 17.09 20.67 17.19C20.54 17.47 20.16 17.5 20.11 17.81C20.2816 17.9636 20.4619 18.1071 20.65 18.24C20.83 18.35 20.78 18.6 20.92 18.71C20.9348 18.7265 20.9429 18.7479 20.9429 18.77C20.9429 18.7921 20.9348 18.8135 20.92 18.83H20.85ZM23.36 12.91C23.3 13.01 23.16 13.07 23.25 13.25C23.2216 13.2651 23.1969 13.2862 23.1775 13.3119C23.1582 13.3376 23.1447 13.3672 23.138 13.3987C23.1313 13.4301 23.1316 13.4627 23.1389 13.494C23.1461 13.5253 23.1602 13.5547 23.18 13.58C23.1342 13.6267 23.1086 13.6896 23.1086 13.755C23.1086 13.8204 23.1342 13.8833 23.18 13.93C23.05 14.07 23.18 14.2 23.27 14.25C23.2497 14.2921 23.2391 14.3382 23.2391 14.385C23.2391 14.4318 23.2497 14.4779 23.27 14.52C23.2055 14.643 23.113 14.7492 23 14.83C22.9307 15.1924 22.9139 15.5628 22.95 15.93C23.4058 15.7292 23.8355 15.474 24.23 15.17C23.92 14.96 23.68 14.45 23.33 14.48C23.2619 14.1975 23.2561 13.9036 23.3131 13.6186C23.3701 13.3337 23.4885 13.0645 23.66 12.83C23.72 12.83 23.82 12.78 23.87 12.75C23.66 12.75 23.38 12.84 23.18 12.75C23.18 12.75 23.28 12.91 23.38 12.93L23.36 12.91Z" fill="black"/>
<path fill-rule="evenodd" clip-rule="evenodd" d="M24.46 12.75H24.59V12.67H24.49C24.4871 12.7 24.4871 12.7301 24.49 12.76L24.26 12.59C24.26 12.59 24.36 12.49 24.41 12.49C24.5317 12.4615 24.6583 12.4615 24.78 12.49C24.8435 12.5454 24.8946 12.6136 24.93 12.69C25.11 12.82 25.41 12.82 25.59 12.97C25.59 13.02 25.64 13.1 25.59 13.13C25.54 13.16 25.43 13.13 25.41 13.13V13.23H25.35V13.11H25.22C25.19 13.11 25.22 13.11 25.22 13.18C25.22 13.25 25.31 13.23 25.36 13.18H25.5C25.5 13.27 25.45 13.3 25.34 13.27C25.23 13.24 25.49 13.41 25.5 13.45C25.51 13.49 25.45 13.51 25.34 13.45C25.1072 13.6718 24.8526 13.8695 24.58 14.04C24.29 14.17 24.58 13.97 24.58 13.97C24.8394 13.8065 25.0749 13.608 25.28 13.38C25.2559 13.3328 25.2391 13.2823 25.23 13.23C25.1215 13.2129 25.0106 13.238 24.92 13.3C25.1177 13.9483 25.1521 14.6353 25.02 15.3C25.1343 14.633 25.0933 13.9486 24.9 13.3C24.781 13.3218 24.659 13.3218 24.54 13.3C24.54 13.97 25.05 14.07 24.85 14.95C24.28 14.86 23.85 14.15 23.54 14.22C23.54 14.1 23.41 13.9 23.54 13.84C23.54 13.74 23.47 13.61 23.62 13.53C23.57 13.4 23.55 13.28 23.7 13.18C23.6874 13.1507 23.6817 13.1188 23.6833 13.0869C23.6849 13.055 23.6938 13.0239 23.7092 12.996C23.7246 12.968 23.7462 12.9439 23.7724 12.9256C23.7985 12.9072 23.8285 12.8951 23.86 12.89C23.8833 12.8124 23.9327 12.7453 24 12.7C23.9559 12.6785 23.917 12.6477 23.8859 12.6098C23.8548 12.5718 23.8324 12.5275 23.82 12.48C23.8815 12.5281 23.9528 12.5619 24.0288 12.5792C24.1049 12.5965 24.1838 12.5968 24.26 12.58L24.49 12.75H24.46ZM5 21.12H6.8V21.78H6.25V22.88H8.28V21.78H7.71V21.12H9.54V21.78H8.95V25.01H9.54V25.65H7.71V25.01H8.28V23.52H6.25V25.01H6.8V25.65H5V25.01H5.57V21.78H5V21.12ZM26.57 21.12H30.28V22.39H29.66V21.78H27.85V22.86H29.39V23.5H27.85V25.01H29.64V24.14H30.3V25.65H26.57V25.01H27.18V21.78H26.57V21.12ZM10.38 21.12H14.1V22.39H13.46V21.78H11.66V22.86H13.2V23.5H11.66V25.01H13.44V24.14H14.1V25.65H10.38V25.01H10.98V21.78H10.38V21.12ZM33.92 23.06C33.46 22.94 33.15 22.96 32.67 22.81C32.19 22.66 32.18 22.42 32.18 22.25C32.18 22.08 32.36 21.63 33.02 21.63C33.2749 21.5979 33.5324 21.6652 33.7391 21.8179C33.9458 21.9706 34.0858 22.1969 34.13 22.45H34.77V21.12H34.15V21.5C34.15 21.5 34.15 21.45 34.05 21.4C33.7559 21.1509 33.3854 21.0097 33 21C32.6439 20.9722 32.2911 21.0857 32.0179 21.3158C31.7447 21.546 31.5731 21.8744 31.54 22.23C31.5382 22.5217 31.6445 22.8037 31.8384 23.0216C32.0323 23.2395 32.3001 23.3779 32.59 23.41C33.06 23.54 33.31 23.54 33.72 23.66C33.8936 23.6811 34.0541 23.763 34.1731 23.8911C34.2921 24.0192 34.3618 24.1854 34.37 24.36C34.37 24.69 34.16 25.13 33.31 25.13C33.1527 25.1524 32.9924 25.142 32.8393 25.0993C32.6862 25.0566 32.5436 24.9827 32.4205 24.8822C32.2974 24.7816 32.1965 24.6567 32.1241 24.5152C32.0517 24.3737 32.0095 24.2187 32 24.06H31.39V25.65H32V25.27C32.023 25.3123 32.0577 25.347 32.1 25.37C32.4612 25.6459 32.9056 25.7905 33.36 25.78C33.559 25.8006 33.76 25.781 33.9512 25.7222C34.1424 25.6635 34.3198 25.5668 34.4728 25.438C34.6259 25.3093 34.7514 25.151 34.842 24.9727C34.9326 24.7943 34.9863 24.5996 35 24.4C35.0211 24.0819 34.9217 23.7675 34.7216 23.5192C34.5215 23.271 34.2354 23.107 33.92 23.06ZM25.11 25.01V21.78H25.72V21.12H24.08L22.98 23.78L22.97 23.91L22.93 23.78L21.85 21.12H20.2V21.78H20.8V25.01H20.2V25.65H22.05V25.01H21.48V21.84L21.52 21.99L22.79 25.01H23.15L24.41 21.99L24.44 21.83L24.46 22.01V25.01H23.89V25.65H25.72V25.01H25.11ZM18.89 25V24.08C18.8776 23.9326 18.8325 23.7897 18.7582 23.6617C18.6838 23.5337 18.582 23.4239 18.46 23.34C18.3984 23.3175 18.3348 23.3007 18.27 23.29C18.3461 23.3029 18.4239 23.3029 18.5 23.29C18.6809 23.1979 18.8294 23.0528 18.9259 22.8742C19.0223 22.6956 19.0621 22.4918 19.04 22.29C19.0466 22.109 19.0081 21.9292 18.9278 21.7668C18.8474 21.6044 18.7279 21.4646 18.58 21.36C18.3084 21.1795 17.9856 21.0918 17.66 21.11H15.11V21.77H15.69V25H15.11V25.64H16.92V25H16.34V23.58H17.59C17.6639 23.5746 17.7381 23.5842 17.8081 23.6081C17.8782 23.632 17.9428 23.6699 17.9979 23.7194C18.053 23.7689 18.0975 23.829 18.1288 23.8961C18.1601 23.9633 18.1775 24.036 18.18 24.11L18.23 25.65H19.46V25H18.89ZM17.72 23H16.34V21.78H17.64C17.7855 21.7544 17.9345 21.7544 18.08 21.78C18.1793 21.8293 18.2618 21.9069 18.317 22.003C18.3722 22.0991 18.3976 22.2095 18.39 22.32C18.3849 22.4028 18.3635 22.4838 18.3271 22.5583C18.2906 22.6328 18.2398 22.6994 18.1775 22.7542C18.1153 22.809 18.0428 22.851 17.9643 22.8777C17.8858 22.9045 17.8028 22.9155 17.72 22.91V23ZM14.89 27.25C15.48 27.25 15.74 27.58 15.74 27.99C15.74 28.4 15.46 28.71 14.84 28.71H14.41V29.84H14V27.25H14.89ZM14.41 28.38H14.87C15.15 28.38 15.34 28.24 15.34 27.97C15.34 27.7 15.23 27.58 14.89 27.58H14.41V28.38ZM18.67 29.84H18.26L17.93 29.07H16.8L16.49 29.84H16.08L17.23 27.24H17.49L18.67 29.84ZM17 28.73H17.84L17.39 27.73L17 28.73ZM22.98 29.84H22.61V27.25H22.98V29.84ZM25.69 27.81C25.5038 27.648 25.2668 27.556 25.02 27.55C24.77 27.55 24.57 27.66 24.57 27.84C24.57 28.35 25.79 28.34 25.79 29.17C25.785 29.2678 25.7604 29.3635 25.7176 29.4515C25.6749 29.5395 25.6149 29.618 25.5412 29.6824C25.4675 29.7468 25.3816 29.7957 25.2886 29.8262C25.1957 29.8567 25.0975 29.8682 25 29.86C24.7192 29.8668 24.4433 29.7864 24.21 29.63V29.15C24.301 29.2653 24.4163 29.3591 24.5476 29.4248C24.679 29.4905 24.8232 29.5264 24.97 29.53C25.28 29.53 25.43 29.35 25.43 29.2C25.43 28.68 24.2 28.61 24.2 27.91C24.2 27.48 24.54 27.22 25.05 27.22C25.2764 27.2157 25.499 27.2783 25.69 27.4V27.81ZM21.39 29.53C21.3388 29.4632 21.292 29.393 21.25 29.32C21.1091 29.0362 20.8994 28.7921 20.64 28.61C20.7705 28.5686 20.8848 28.4877 20.9672 28.3784C21.0497 28.2691 21.096 28.1369 21.1 28C21.1 27.56 20.75 27.28 20.2 27.28H19.52V29.87H19.92V28.71H20.08C20.28 28.71 20.44 28.78 20.79 29.3L21.15 29.84H21.59L21.39 29.53ZM20.16 28.38H19.92V27.56H20.16C20.54 27.56 20.69 27.71 20.69 27.96C20.69 28.21 20.59 28.38 20.16 28.38Z" fill="black"/>
</svg>
