
<svg width="2500" height="2500" viewBox="0 0 2500 2500" fill="none" xmlns="http://www.w3.org/2000/svg">
    <g clip-path="url(#clip0_87_13)">
        <path fill-rule="evenodd" clip-rule="evenodd" d="M0 0H2500V2500H0V0Z" fill="tranparent"/>
        <path fill-rule="evenodd" clip-rule="evenodd" d="M36.7563 714.725L269.123 1732.92C502.41 1598.32 983.017 1551.12 1250.29 1733.56C1517.63 1551.51 1997.72 1598.39 2230.86 1732.92L2463.23 714.725H36.7563Z" fill="black"/>
        <path fill-rule="evenodd" clip-rule="evenodd" d="M338.174 962.603V1345.28H606.051V1255.43H466.289V962.603H338.174ZM1014.31 963.225H1157.05L1253.32 1220.27L1346.27 963.225H1487.35L1326.37 1344.65H1176.97L1014.31 963.225ZM1522.96 962.862V1345.02H1650.93V962.862H1522.96ZM822.361 956.261C705.192 956.261 622.095 978.685 622.095 1156.44C622.095 1302.62 657.826 1363.26 827.341 1363.26C1008.49 1363.26 1011.82 1277.7 1016.8 1237H888.831C888.831 1269.4 856.419 1283.51 823.178 1283.51C813.204 1283.51 752.545 1291.83 752.545 1193.8H1016.79C1018.45 1179.68 1016.83 1125.65 1015.96 1117.38C1006.84 1031.02 998.529 955.431 822.361 956.261ZM1990.43 956.702C2094.95 956.702 2161.32 995.65 2169.6 1080.17H2036.89C2036.89 1061.95 2023.62 1027.97 1985.44 1027.97C1947.29 1027.97 1926.54 1040.4 1926.54 1068.57C1926.54 1098.4 1943.97 1105.85 1957.24 1109.17C1963.88 1110.83 2043.52 1122.43 2070.04 1125.75C2089.79 1128.21 2171.24 1132.38 2169.6 1215.24C2167.92 1298.12 2116.5 1349.49 1987.11 1349.49C1857.69 1349.49 1796.31 1304.75 1796.31 1231.83H1929.04C1929.85 1257.51 1943.96 1276.57 1985.44 1276.57C2026.93 1276.57 2048.48 1258.39 2048.48 1230.17C2048.48 1208.61 2029.4 1197.02 2008.67 1195.36C1995.04 1194.27 1908.31 1193.7 1866.83 1175.46C1829.84 1159.21 1787.47 1134.17 1794.67 1071.04C1802.95 998.14 1856.04 956.702 1990.43 956.702ZM1790.41 969.256C1790.71 998.335 1788.23 1017.44 1749.17 1039.05C1751.67 1033.4 1759.35 1021.59 1758.1 1013.65C1751.53 1016.17 1744.55 1017.46 1737.51 1017.44C1708.3 1017.44 1684.64 995.87 1684.64 969.269C1684.64 942.668 1708.3 921.1 1737.51 921.1C1766.75 921.087 1790.41 942.655 1790.41 969.256Z" fill="#374151"/>
        <path fill-rule="evenodd" clip-rule="evenodd" d="M755.009 1113.14H892.216C893.046 1060.76 873.086 1032.5 822.361 1032.5C776.63 1032.5 755.009 1061.6 755.009 1113.14ZM2146.7 1742.44C2144.4 1740.07 2141.63 1738.21 2138.58 1736.95C2135.53 1735.69 2132.25 1735.08 2128.95 1735.13C2122.06 1735.13 2116.16 1737.57 2111.3 1742.44C2108.93 1744.73 2107.06 1747.48 2105.8 1750.52C2104.54 1753.56 2103.91 1756.82 2103.96 1760.11C2103.96 1767.08 2106.39 1773.01 2111.23 1777.9C2116.12 1782.81 2122.02 1785.28 2128.96 1785.28C2135.9 1785.28 2141.83 1782.81 2146.72 1777.9C2151.61 1772.98 2154.03 1767.05 2154.03 1760.11C2154.08 1756.82 2153.46 1753.56 2152.2 1750.52C2150.94 1747.48 2149.07 1744.73 2146.7 1742.44ZM2144.19 1775.48C2140.01 1779.71 2134.91 1781.83 2128.94 1781.83C2122.96 1781.83 2117.86 1779.71 2113.66 1775.48C2111.64 1773.47 2110.04 1771.08 2108.97 1768.43C2107.9 1765.79 2107.38 1762.96 2107.43 1760.11C2107.43 1754.15 2109.51 1749.06 2113.71 1744.85C2117.91 1740.62 2122.98 1738.51 2128.94 1738.51C2134.89 1738.51 2139.99 1740.62 2144.19 1744.85C2148.39 1749.06 2150.46 1754.15 2150.46 1760.11C2150.48 1766.12 2148.39 1771.24 2144.19 1775.48Z" fill="black"/>
        <path fill-rule="evenodd" clip-rule="evenodd" d="M2140.11 1773.46C2139.99 1773.23 2139.91 1772.75 2139.86 1772.03C2139.8 1771.32 2139.78 1770.63 2139.78 1769.98V1767.97C2139.73 1766.43 2139.21 1764.94 2138.29 1763.71C2137.73 1762.95 2137.02 1762.32 2136.21 1761.85C2135.39 1761.39 2134.49 1761.1 2133.55 1761.01C2134.96 1760.84 2136.31 1760.39 2137.53 1759.67C2139.34 1758.52 2140.24 1756.7 2140.24 1754.25C2140.24 1750.79 2138.83 1748.47 2135.99 1747.27C2134.4 1746.63 2131.89 1746.29 2128.47 1746.29H2118.84V1773.81H2123.68V1762.95H2127.51C2130.09 1762.95 2131.89 1763.25 2132.9 1763.84C2134.65 1764.86 2135.51 1766.96 2135.51 1770.15V1772.33L2135.61 1773.21L2135.67 1773.51C2135.69 1773.6 2135.71 1773.69 2135.74 1773.78H2140.28L2140.11 1773.46ZM2132.67 1758.95C2131.19 1759.43 2129.63 1759.64 2128.07 1759.57H2123.68V1749.6H2127.81C2130.49 1749.6 2132.44 1749.93 2133.68 1750.62C2134.9 1751.31 2135.51 1752.64 2135.51 1754.65C2135.5 1756.77 2134.54 1758.21 2132.67 1758.95Z" fill="black"/>
    </g>
    <defs>
        <clipPath id="clip0_87_13">
        <rect width="2500" height="2500" fill="white"/>
        </clipPath>
    </defs>
</svg>
