<svg width="2500" height="2500" viewBox="0 0 2500 2500" fill="none" xmlns="http://www.w3.org/2000/svg">
<g clip-path="url(#clip0_84_14)">
<path fill-rule="evenodd" clip-rule="evenodd" d="M0 0H2500V2500H0V0Z" fill="tranparent"/>
<path fill-rule="evenodd" clip-rule="evenodd" d="M443.242 1392.43C423.943 1392.43 408.833 1405.94 408.833 1425.64C408.833 1445.35 424.021 1458.77 443.242 1458.77C462.45 1458.77 477.651 1445.26 477.651 1425.64C477.651 1405.94 462.528 1392.43 443.242 1392.43ZM443.242 1449.28C429.481 1449.28 419.274 1439.23 419.274 1425.64C419.274 1412.06 429.403 1401.93 443.242 1401.93C456.912 1401.93 467.197 1412.21 467.197 1425.64C467.197 1438.98 456.821 1449.28 443.242 1449.28ZM778.056 1276.3H610.552L629.591 985.157L520.814 1276.3H365.268L612.069 618.23H777.576L758.472 913.37L869.312 618.23H1024.87L778.056 1276.3ZM798.263 1276.3L1045.05 618.23H1200.6L953.81 1276.3H798.263Z" fill="black"/>
<path fill-rule="evenodd" clip-rule="evenodd" d="M347.33 1049.47C129.97 1304.73 -75.0689 1644.37 106.041 1800.77C281.535 1952.34 500.892 1862.6 650.46 1802.77C800.027 1742.94 2453.19 1025.04 2453.19 1025.04C2469.14 1017.06 2466.16 1007.09 2446.21 1012.07C2438.17 1014.08 646.478 1499.64 646.478 1499.64C419.118 1563.47 159.878 1424.37 347.33 1049.47Z" fill="black"/>
<path fill-rule="evenodd" clip-rule="evenodd" d="M449.104 1427.97C453.929 1427.74 457.703 1425.25 457.703 1418.57C457.703 1409.96 452.074 1407.79 442.671 1407.79H429.156V1443.5H438.17V1428.3H439.688L447.898 1443.5H458.261L449.104 1427.97ZM443.319 1422.19H438.183V1413.9H442.515C445.174 1413.9 448.222 1414.21 448.222 1417.67C448.222 1421.38 446.458 1422.19 443.319 1422.19ZM2006.85 616.219C1987.55 616.219 1972.44 629.734 1972.44 649.422C1972.44 669.123 1987.64 682.547 2006.85 682.547C2026.06 682.547 2041.26 669.032 2041.26 649.422C2041.27 629.734 2026.16 616.219 2006.85 616.219ZM2006.85 673.079C1993.09 673.079 1982.88 663.027 1982.88 649.435C1982.88 635.856 1993.01 625.726 2006.85 625.726C2020.52 625.726 2030.82 636.011 2030.82 649.435C2030.82 662.781 2020.44 673.079 2006.85 673.079Z" fill="black"/>
<path fill-rule="evenodd" clip-rule="evenodd" d="M2012.73 651.757C2017.55 651.523 2021.34 649.033 2021.34 642.354C2021.34 633.742 2015.7 631.576 2006.31 631.576H1992.79V667.268H2001.79V652.081H2003.32L2011.52 667.268H2021.9L2012.73 651.757ZM2006.93 645.972H2001.79V637.684H2006.14C2008.78 637.684 2011.84 638.009 2011.84 641.472C2011.84 645.168 2010.07 645.972 2006.93 645.972ZM1904.36 727.915L1946.17 618.23H1471.55L1308.58 815.655L1383.82 618.23H1226.28L981.461 1276.3H1137.01L1241.53 1001.11L1248.69 1276.3L1725.96 1275.27L1771.4 1148.68H1589.94L1649.56 989.152H1799.11L1845.13 866.51H1695.58L1746.85 727.915H1904.36ZM1403 1232.43L1393.03 889.441L1628.21 631.225L1403 1232.43Z" fill="black"/>
</g>
<defs>
<clipPath id="clip0_84_14">
<rect width="2500" height="2500" fill="white"/>
</clipPath>
</defs>
</svg>
