<svg width="2500" height="2500" viewBox="0 0 2500 2500" fill="none" xmlns="http://www.w3.org/2000/svg">
<g clip-path="url(#clip0_84_3)">
<path d="M0 0H2500V2500H0V0Z" fill="transparent"/>
<path d="M1393.35 548.245C1386.29 549.308 1379.48 575.339 1365.85 588.931C1355.82 598.697 1343.38 598.127 1336.74 610.214C1334.21 614.715 1335.02 622.445 1332.16 629.864C1326.57 644.675 1306.95 645.985 1306.95 662.145C1306.9 679.59 1323.32 682.923 1337.56 695.296C1348.66 705.231 1349.72 712.105 1363.23 716.943C1374.7 720.847 1391.82 708.058 1407.21 712.663C1419.85 716.424 1431.95 719.135 1434.82 732.104C1437.32 744.088 1434.64 762.635 1419.32 760.482C1414.17 759.899 1391.73 752.376 1364.22 755.281C1331 759.069 1293.14 769.911 1289.39 806.94C1287.37 827.614 1312.94 852.023 1337.68 847.068C1354.77 843.696 1346.69 823.541 1355.99 813.749C1368.17 801.194 1437.32 857.535 1501.6 857.535C1528.66 857.535 1548.81 850.7 1568.77 829.754C1570.66 828.158 1572.91 824.734 1575.81 824.514C1578.55 824.747 1583.27 827.419 1584.84 828.56C1636.59 870.155 1675.75 953.615 1865.99 954.588C1892.74 954.756 1923.2 967.519 1948.07 990.203C1970.28 1010.73 1983.27 1042.68 1995.9 1075.08C2014.96 1123.66 2049.05 1170.96 2100.78 1223.55C2103.62 1226.37 2146.2 1259.49 2149.6 1261.95C2150.13 1262.31 2153.27 1269.78 2152.18 1273.96C2150.89 1305.52 2146.33 1397.25 2214.72 1401.37C2231.4 1402.23 2227.04 1390.45 2227.04 1382.4C2227.01 1366.42 2224.08 1350.53 2232.51 1334.16C2244.05 1311.7 2208.09 1301.33 2209.13 1252.67C2209.91 1216.42 2179.39 1222.59 2163.98 1194.97C2155.07 1178.95 2147.16 1170.46 2147.72 1150.9C2151.22 1040.71 2124.27 968.297 2110.84 950.515C2100.34 937.092 2091.67 931.774 2101.31 925.548C2158.34 887.845 2171.29 852.788 2171.29 852.788C2201.64 781.441 2228.93 716.281 2266.61 687.605C2274.18 681.678 2293.61 667.139 2305.52 661.471C2340.68 644.909 2359.15 634.87 2369.36 624.948C2385.45 609.242 2398.27 576.428 2382.78 556.546C2363.53 531.994 2330.25 551.474 2315.56 560.19C2210.62 622.458 2195.18 732.312 2158.82 795.371C2129.83 845.784 2082.68 882.8 2040.53 885.835C2008.95 888.183 1974.88 881.788 1940.96 866.899C1858.48 830.726 1813.34 784.035 1802.68 775.787C1780.52 758.692 1608.46 589.774 1469.09 582.9C1469.09 582.9 1451.78 548.258 1447.43 547.687C1437.24 546.377 1426.8 568.361 1419.33 570.929C1412.28 573.238 1400.45 547.104 1393.35 548.245ZM779.703 1556.26C766.578 1555.93 755.437 1545.17 755.437 1531.86L755.463 1097.05H612.16V1576.33C612.16 1599.83 631.187 1618.99 654.558 1618.99H905.03C928.531 1618.99 947.338 1599.82 947.338 1576.33V1097.05H804.151L804.035 1531.86C804.048 1545.17 792.881 1555.93 779.703 1556.26ZM1259.47 1097.05H1042.61C1036.48 1097.06 1030.41 1098.28 1024.75 1100.63C1019.09 1102.99 1013.95 1106.44 1009.63 1110.79C1005.3 1115.14 1001.87 1120.29 999.542 1125.96C997.211 1131.64 996.02 1137.71 996.039 1143.84V1618.99H1139.48V1183.17C1139.5 1180 1140.14 1176.87 1141.37 1173.96C1142.6 1171.04 1144.39 1168.39 1146.64 1166.17C1148.89 1163.95 1151.56 1162.19 1154.49 1161C1157.42 1159.8 1160.56 1159.2 1163.73 1159.22C1177.11 1159.22 1187.85 1169.55 1188.16 1182.79V1619H1330.98V1182.78C1331.19 1169.54 1341.9 1159.21 1355.28 1159.21C1368.52 1159.21 1379.46 1169.8 1379.57 1183.15V1618.99H1523.03V1143.84C1523.04 1137.71 1521.85 1131.63 1519.51 1125.96C1517.17 1120.29 1513.74 1115.13 1509.42 1110.79C1505.09 1106.44 1499.94 1102.99 1494.28 1100.63C1488.62 1098.28 1482.55 1097.06 1476.41 1097.05H1259.47ZM516.573 1487.84H371.804V1618.99H228.566V1097.05H517.481C543.342 1097.05 563.536 1118.07 563.536 1144.05V1440.77C563.555 1446.95 562.354 1453.07 560.002 1458.78C557.649 1464.49 554.193 1469.69 549.829 1474.06C545.466 1478.43 540.282 1481.9 534.575 1484.27C528.868 1486.63 522.75 1487.84 516.573 1487.84ZM420.402 1184.06C420.447 1180.84 419.854 1177.64 418.659 1174.64C417.465 1171.65 415.69 1168.91 413.439 1166.61C411.187 1164.3 408.502 1162.46 405.537 1161.19C402.572 1159.92 399.386 1159.25 396.161 1159.21H371.804V1423.21H396.161C408.781 1423.21 420.519 1413.17 420.402 1398.69V1184.06ZM2079.04 1557.12C2079.04 1592.58 2050.61 1621.42 2015.42 1621.42C2006.99 1621.43 1998.63 1619.77 1990.84 1616.54C1983.05 1613.31 1975.97 1608.57 1970.01 1602.6C1964.06 1596.62 1959.34 1589.53 1956.14 1581.72C1952.93 1573.92 1951.3 1565.56 1951.34 1557.12C1951.34 1522.18 1979.91 1492.94 2014.39 1492.94C2050.57 1492.9 2079.04 1521.28 2079.04 1557.12ZM2014.5 1502.27C1985.7 1502.27 1961.53 1527.14 1961.53 1557.29C1961.53 1587.55 1985.7 1612.21 2015.38 1612.21C2044.84 1612.21 2068.73 1587.55 2068.73 1557.29C2068.73 1527.09 2044.84 1502.27 2015.38 1502.27H2014.5Z" fill="black"/>
<path d="M2045.47 1594.31H2028.39L2006.41 1565.04V1594.31H1992.45V1520.32H2007.1C2027.08 1520.32 2037.67 1527.84 2037.67 1542.27C2037.67 1551.9 2031.42 1560.41 2022.7 1563L2021.66 1563.36L2045.47 1594.31ZM2008.81 1553.03C2018.74 1553.03 2024.04 1549.51 2024.04 1542.46C2024.04 1536.18 2018.93 1532.94 2009.22 1532.94H2006.37V1553.05L2008.81 1553.03ZM1763.5 1618.99V1487.94H1714.77V1618.99H1571.64V1143.84C1571.64 1117.9 1592.52 1097.05 1618.22 1097.05H1860.06C1866.19 1097.05 1872.27 1098.27 1877.94 1100.62C1883.6 1102.98 1888.75 1106.43 1893.08 1110.78C1897.41 1115.12 1900.84 1120.28 1903.17 1125.95C1905.51 1131.63 1906.7 1137.71 1906.69 1143.84V1618.99H1763.5ZM1763.5 1423.31V1182.97C1763.15 1169.69 1752.42 1159.47 1739.06 1159.47C1732.69 1159.46 1726.57 1161.96 1722.02 1166.43C1717.47 1170.9 1714.87 1176.97 1714.77 1183.35V1423.31H1763.5ZM232.587 1882.21V1738.82H248.579V1752.29C252.34 1747.03 256.607 1743.05 261.367 1740.41C266.101 1737.81 271.859 1736.44 278.63 1736.44C287.488 1736.44 295.283 1738.77 302.053 1743.27C308.849 1747.86 313.946 1754.28 317.383 1762.57C320.859 1770.87 322.571 1779.96 322.571 1789.85C322.571 1800.45 320.678 1810.02 316.851 1818.52C313.051 1827 307.526 1833.5 300.263 1838.04C293.43 1842.42 285.489 1844.76 277.372 1844.79C271.496 1844.79 266.269 1843.55 261.613 1841.1C257.174 1838.81 253.267 1835.62 250.148 1831.72V1882.19L232.587 1882.21ZM248.488 1791.23C248.488 1804.55 251.186 1814.43 256.581 1820.81C261.976 1827.18 268.552 1830.37 276.204 1830.37C283.999 1830.37 290.704 1827.08 296.268 1820.42C301.832 1813.83 304.634 1803.6 304.634 1789.75C304.634 1776.52 301.897 1766.66 296.476 1760.06C291.042 1753.5 284.544 1750.21 277.021 1750.21C269.525 1750.21 262.897 1753.71 257.126 1760.7C251.341 1767.73 248.488 1777.92 248.488 1791.23ZM511.631 1842.51V1827.27C503.525 1839 492.579 1844.83 478.714 1844.83C472.618 1844.83 466.886 1843.67 461.581 1841.32C456.289 1838.98 452.36 1836.01 449.792 1832.49C447.053 1828.59 445.198 1824.14 444.357 1819.45C443.657 1815.99 443.294 1810.53 443.294 1803.02V1738.8H460.855V1796.3C460.855 1805.49 461.231 1811.67 461.931 1814.86C463.06 1819.49 465.407 1823.1 468.961 1825.75C472.566 1828.39 476.989 1829.71 482.255 1829.71C487.521 1829.71 492.449 1828.36 497.092 1825.66C501.722 1822.98 504.978 1819.28 506.884 1814.64C508.817 1809.97 509.79 1803.21 509.79 1794.38V1738.86H527.351V1842.51H511.631ZM654.805 1842.51V1738.86H670.498V1753.37C673.757 1748.29 678.221 1744.1 683.494 1741.17C688.902 1738.07 695.063 1736.5 701.95 1736.5C709.615 1736.5 715.918 1738.1 720.808 1741.29C725.736 1744.5 729.212 1748.92 731.21 1754.65C739.445 1742.55 750.106 1736.5 763.232 1736.5C773.53 1736.5 781.428 1739.38 786.966 1745.06C792.492 1750.74 795.267 1759.52 795.267 1771.35V1842.51H777.81V1777.21C777.81 1770.17 777.239 1765.09 776.111 1762.01C774.924 1758.91 772.744 1756.28 769.911 1754.55C766.737 1752.61 763.073 1751.62 759.354 1751.7C752.052 1751.7 746.021 1754.13 741.196 1758.99C736.397 1763.82 733.959 1771.59 733.959 1782.25V1842.51H716.398V1775.17C716.398 1767.34 714.971 1761.48 712.092 1757.58C709.226 1753.69 704.557 1751.74 698.033 1751.74C693.104 1751.74 688.539 1753.05 684.337 1755.68C680.135 1758.27 677.074 1762.07 675.206 1767.08C673.312 1772.11 672.366 1779.32 672.366 1788.76V1842.54H654.805V1842.51ZM988.893 1829.7C982.369 1835.23 976.105 1839.13 970.1 1841.41C963.898 1843.72 957.327 1844.87 950.71 1844.82C939.309 1844.82 930.581 1842.04 924.459 1836.49C918.363 1830.9 915.289 1823.8 915.289 1815.14C915.289 1810.03 916.418 1805.42 918.752 1801.22C920.919 1797.17 924.029 1793.71 927.818 1791.12C931.579 1788.61 935.782 1786.66 940.477 1785.38C945.617 1784.17 950.828 1783.29 956.079 1782.75C970.268 1781.05 980.735 1779.05 987.427 1776.66C987.492 1774.26 987.531 1772.73 987.531 1772.1C987.531 1764.94 985.871 1759.89 982.538 1756.98C978.076 1752.97 971.384 1751.01 962.551 1751.01C954.289 1751.01 948.194 1752.44 944.212 1755.34C940.282 1758.25 937.39 1763.37 935.483 1770.74L918.324 1768.36C919.894 1761.06 922.462 1755.09 926.028 1750.59C929.595 1746.04 934.796 1742.57 941.553 1740.11C948.31 1737.68 956.144 1736.44 965.08 1736.44C973.939 1736.44 981.098 1737.51 986.636 1739.57C992.174 1741.67 996.234 1744.25 998.867 1747.42C1001.47 1750.58 1003.26 1754.56 1004.33 1759.4C1004.9 1762.38 1005.2 1767.78 1005.2 1775.59V1799.02C1005.2 1815.38 1005.56 1825.73 1006.32 1830.01C1007.06 1834.34 1008.55 1838.5 1010.76 1842.47H992.395C990.456 1838.46 989.269 1834.13 988.893 1829.7ZM987.414 1790.45C981.02 1793.08 971.461 1795.27 958.725 1797.12C951.501 1798.15 946.365 1799.32 943.395 1800.63C940.556 1801.79 938.139 1803.79 936.469 1806.36C934.848 1808.84 934.005 1811.6 934.005 1814.69C934.005 1819.39 935.808 1823.29 939.335 1826.42C942.85 1829.52 948.064 1831.06 954.899 1831.06C961.656 1831.06 967.687 1829.62 972.953 1826.64C978.008 1823.9 982.074 1819.64 984.574 1814.47C986.48 1810.51 987.401 1804.64 987.401 1796.91L987.414 1790.45ZM1137.32 1842.51V1822.47H1157.34V1842.51H1137.32ZM1355.48 1804.51L1372.72 1806.79C1370.83 1818.67 1366.01 1828.02 1358.25 1834.73C1350.48 1841.47 1340.92 1844.82 1329.6 1844.82C1315.42 1844.82 1303.99 1840.19 1295.38 1830.93C1286.74 1821.67 1282.41 1808.39 1282.41 1791.05C1282.41 1779.87 1284.31 1770.06 1288 1761.66C1291.72 1753.27 1297.38 1746.96 1304.98 1742.77C1312.54 1738.57 1321.05 1736.4 1329.7 1736.47C1340.94 1736.47 1350.19 1739.34 1357.31 1745.03C1364.48 1750.72 1369.06 1758.8 1371.1 1769.3L1354.02 1771.92C1352.37 1764.96 1349.49 1759.72 1345.38 1756.2C1341.26 1752.68 1336.26 1750.93 1330.39 1750.93C1321.52 1750.93 1314.33 1754.1 1308.81 1760.45C1303.28 1766.78 1300.49 1776.82 1300.49 1790.54C1300.49 1804.46 1303.18 1814.59 1308.52 1820.92C1313.86 1827.21 1320.82 1830.37 1329.4 1830.37C1336.27 1830.37 1342.06 1828.24 1346.68 1824.02C1351.29 1819.81 1354.23 1813.3 1355.48 1804.51ZM1481.12 1790.64C1481.12 1771.45 1486.44 1757.21 1497.15 1747.99C1506.06 1740.34 1516.9 1736.44 1529.73 1736.44C1544.01 1736.44 1555.65 1741.11 1564.69 1750.48C1573.73 1759.82 1578.24 1772.69 1578.24 1789.15C1578.24 1802.51 1576.24 1813 1572.23 1820.64C1568.34 1828.2 1562.25 1834.41 1554.78 1838.46C1547.11 1842.7 1538.48 1844.88 1529.72 1844.79C1515.23 1844.79 1503.51 1840.16 1494.53 1830.84C1485.6 1821.56 1481.12 1808.18 1481.12 1790.64ZM1499.21 1790.64C1499.21 1803.91 1502.11 1813.85 1507.9 1820.46C1513.69 1827.1 1521 1830.4 1529.77 1830.4C1538.51 1830.4 1545.75 1827.06 1551.56 1820.44C1557.33 1813.8 1560.22 1803.67 1560.22 1790.06C1560.22 1777.25 1557.33 1767.52 1551.51 1760.91C1545.66 1754.3 1538.43 1751.01 1529.77 1751.01C1521 1751.01 1513.71 1754.3 1507.9 1760.88C1502.07 1767.44 1499.21 1777.39 1499.21 1790.64ZM1698.79 1842.51V1738.86H1714.47V1753.37C1717.73 1748.29 1722.2 1744.1 1727.47 1741.17C1732.86 1738.07 1739.06 1736.5 1745.94 1736.5C1753.6 1736.5 1759.89 1738.1 1764.78 1741.29C1769.72 1744.5 1773.19 1748.92 1775.21 1754.65C1783.45 1742.55 1794.11 1736.5 1807.25 1736.5C1817.53 1736.5 1825.42 1739.38 1830.94 1745.06C1836.51 1750.74 1839.27 1759.52 1839.27 1771.35V1842.51H1821.8V1777.21C1821.8 1770.17 1821.21 1765.09 1820.1 1762.01C1818.93 1758.95 1816.86 1756.43 1813.89 1754.55C1810.72 1752.61 1807.06 1751.62 1803.34 1751.7C1796.05 1751.7 1790.04 1754.13 1785.2 1758.99C1780.41 1763.82 1777.96 1771.59 1777.96 1782.25V1842.51H1760.4V1775.17C1760.4 1767.34 1758.97 1761.48 1756.09 1757.58C1753.23 1753.69 1748.57 1751.74 1742.03 1751.74C1737.09 1751.74 1732.55 1753.05 1728.32 1755.68C1724.15 1758.27 1721.07 1762.07 1719.21 1767.08C1717.31 1772.11 1716.37 1779.32 1716.37 1788.76V1842.54H1698.79V1842.51Z" fill="black"/>
</g>
<defs>
<clipPath id="clip0_84_3">
<rect width="2500" height="2500" fill="white"/>
</clipPath>
</defs>
</svg>
